<?xml version="1.0" encoding="UTF-8"?>
<svg xmlns="http://www.w3.org/2000/svg" width="2269" height="760" viewBox="0 0 2269 760" fill="none">
  <path d="M1619.23 0H2268.28V759.999H0.000244141L21.019 735.639C104.194 639.244 225.206 583.827 352.525 583.827C470.362 583.827 583.225 536.33 665.604 452.073L781.963 333.06C862.125 251.07 971.951 204.851 1086.62 204.851H1311.74C1347.31 204.851 1379.39 183.478 1393.09 150.657C1431.18 59.4158 1520.36 0 1619.23 0Z" fill="#94D6E0"></path>
  <path fill-rule="evenodd" clip-rule="evenodd" d="M613.537 516.795H342.363C358.515 493.772 385.248 478.673 415.514 478.673C421.948 478.673 428.223 479.352 434.272 480.665C456.927 485.555 480.397 482.431 500.65 471.157C525.683 457.212 554.499 449.267 585.196 449.267C594.847 449.267 604.294 450.059 613.514 451.576V516.772L613.537 516.795Z" fill="white"></path>
  <path fill-rule="evenodd" clip-rule="evenodd" d="M1059.07 649.255C1046.65 629.631 1026.13 616.773 1002.86 616.773C997.912 616.773 993.09 617.358 988.441 618.471C971.033 622.631 953.006 619.977 937.446 610.372C918.222 598.498 896.081 591.726 872.505 591.726C829.48 591.726 791.232 614.268 766.773 649.255H1059.07Z" fill="white"></path>
  <path d="M954.238 627.281C954.774 624.324 954.843 621.205 954.447 617.992C952.677 604.444 941.658 593.665 928.076 592.176C909.951 590.174 894.622 604.304 894.622 622.02C894.622 623.998 894.808 625.931 895.181 627.793C896.905 636.616 894.342 645.695 888.495 652.516C880.9 661.385 876.497 673.095 877.126 685.852C878.314 709.69 897.417 729.221 921.226 730.874C949.066 732.83 972.246 710.83 972.246 683.431C972.246 671.675 967.983 660.92 960.901 652.632C954.913 645.625 952.607 636.36 954.214 627.281H954.238Z" fill="#009877"></path>
  <path d="M924.651 655.146V759.996" stroke="#00615C" stroke-width="2" stroke-linejoin="round"></path>
  <path d="M906.014 669.114L924.651 687.714" stroke="#00615C" stroke-width="2" stroke-linejoin="round"></path>
  <path d="M924.978 703.591L946.038 682.546" stroke="#00615C" stroke-width="2" stroke-linejoin="round"></path>
  <g style="mix-blend-mode:multiply" opacity="0.4">
    <path d="M657.428 387.713H637.066V759.95H657.428V387.713Z" fill="#676C6E"></path>
  </g>
  <path d="M393.849 630.074V642.948H252.206C248.641 642.948 245.752 640.061 245.752 636.499C245.752 632.938 248.641 630.051 252.206 630.051H393.849V630.074Z" fill="#D7F0F1"></path>
  <path d="M386.045 652.19H284.611V733.714H386.045V652.19Z" fill="white"></path>
  <path d="M272.218 615.944H259.335V759.95H272.218V615.944Z" fill="#D7F0F1"></path>
  <g style="mix-blend-mode:multiply" opacity="0.6">
    <path d="M277.296 642.948H272.217V630.074H280.325L277.296 642.948Z" fill="#C8E3EA"></path>
  </g>
  <path d="M415.407 665.258L397.634 678.043L399.581 680.745L417.354 667.96L415.407 665.258Z" fill="white"></path>
  <path d="M399.66 701.887L397.714 704.589L415.487 717.374L417.433 714.672L399.66 701.887Z" fill="white"></path>
  <path d="M421.992 689.926H400.186V693.255H421.992V689.926Z" fill="white"></path>
  <path d="M380.291 659.01H290.668V727.196H380.291V659.01Z" fill="#009877"></path>
  <path d="M299.033 642.948H308.119V657.102C308.119 659.593 306.092 661.642 303.576 661.642C301.083 661.642 299.033 659.616 299.033 657.102V642.948Z" fill="#004D71"></path>
  <path d="M362.562 642.948H371.648V657.102C371.648 659.593 369.621 661.642 367.105 661.642C364.612 661.642 362.562 659.616 362.562 657.102V642.948V642.948Z" fill="#004D71"></path>
  <path d="M307.676 700.146C309.633 701.869 311.52 702.427 312.359 701.706C313.314 700.914 309.866 698.819 308.119 696.794C306.884 695.374 306.325 693.185 307.396 690.764C308.351 688.599 310.378 686.108 312.382 684.851C313.151 684.385 314.409 683.897 315.807 684.385C316.878 684.781 318.066 685.549 318.695 686.271C319.627 687.295 319.557 688.436 319.418 689.321C319.208 690.857 318.346 693.441 317.67 694.792C317.344 695.42 316.995 695.56 316.412 695.28C314.712 694.559 313.966 693.534 314.246 692.184C314.502 690.997 315.504 688.459 315.108 688.273C314.409 687.877 310.122 692.254 311.916 694.675C313.873 697.259 318.16 698.959 316.599 701.985C315.876 703.405 314.269 705.733 310.914 705.803C308.724 705.873 306.604 704.779 304.74 702.125C303.785 700.775 303.902 700.262 304.531 699.936C305.556 699.401 306.977 699.541 307.676 700.146V700.146Z" fill="white"></path>
  <path d="M335.398 688.902C335.631 693.418 333.767 700.658 330.016 704.336C328.758 705.57 327.383 705.896 325.776 705.687C324.704 705.547 323.446 705.151 322.584 704.569C321.932 704.104 321.186 703.219 320.884 702.171C319.462 697.422 322.351 688.995 326.964 685.177C327.919 684.386 329.41 683.99 330.482 684.153C331.88 684.339 333.301 684.944 334.07 685.713C334.955 686.62 335.328 687.645 335.398 688.902ZM326.172 694.373C325.007 697.469 324.378 701.683 325.613 702.171C326.801 702.66 328.711 699.774 330.039 695.839C331.064 692.79 331.81 688.25 330.738 687.901C329.713 687.575 327.36 691.253 326.195 694.373H326.172Z" fill="white"></path>
  <path d="M340.5 705.5C339.149 705.896 338.846 705.57 338.403 705.128C337.984 704.685 337.611 704.359 337.052 703.708C336.656 703.219 336.446 702.544 336.656 701.682C337.611 697.562 340.244 689.181 342.038 684.735C342.364 683.943 342.806 683.85 343.505 684.059C344.227 684.292 345.276 684.735 345.905 685.247C346.534 685.782 346.604 686.085 346.301 686.83C344.903 690.485 342.993 695.955 341.455 700.728C342.76 700.472 343.878 700.332 345.229 700.239C345.951 700.169 346.348 700.309 346.627 700.961C346.883 701.612 347.023 702.264 347.116 702.916C347.21 703.638 347.21 703.847 346.324 704.033C344.437 704.476 342.317 704.918 340.523 705.454L340.5 705.5Z" fill="white"></path>
  <path d="M353.057 687.155C352.754 686.364 352.754 685.922 353.476 685.526C356.737 683.663 363.843 682.499 365.917 688.319C367.78 693.464 364.193 702.357 354.92 705.802C354.058 706.128 353.359 706.128 352.591 705.546C351.868 704.988 351.356 704.476 350.704 703.777C350.028 703.079 349.702 702.66 350.168 700.914C351.1 697.492 352.521 692.719 353.779 688.808C353.546 688.343 353.243 687.714 353.01 687.155H353.057ZM361.863 689.786C361.537 688.785 360.279 688.087 358.555 688.715C357.087 692.673 355.689 697.049 354.431 701.379C360.838 698.19 362.608 691.835 361.863 689.763V689.786Z" fill="white"></path>
  <path d="M852.094 387.713H637.066V759.95H852.094V387.713Z" fill="#FF595A"></path>
  <path d="M733.192 429.125H693.681V494.503H733.192V429.125Z" fill="white"></path>
  <path d="M693.68 452.305H733.168" stroke="#004D71" stroke-width="3" stroke-miterlimit="10"></path>
  <path d="M713.423 429.125L713.423 494.503" stroke="#004D71" stroke-width="3" stroke-miterlimit="10"></path>
  <path d="M735.474 493.613H690.744V500.07H735.474V493.613Z" fill="#96DAEA"></path>
  <path d="M733.192 523.256H693.681V588.633H733.192V523.256Z" fill="white"></path>
  <path d="M693.68 546.435H733.168" stroke="#004D71" stroke-width="3" stroke-miterlimit="10"></path>
  <path d="M713.423 523.256L713.423 588.633" stroke="#004D71" stroke-width="3" stroke-miterlimit="10"></path>
  <path d="M735.474 587.744H690.744V594.201H735.474V587.744Z" fill="#96DAEA"></path>
  <path d="M804.353 429.125H764.842V494.503H804.353V429.125Z" fill="white"></path>
  <path d="M804.353 523.256H764.842V588.633H804.353V523.256Z" fill="white"></path>
  <path d="M764.841 452.304H804.329" stroke="#004D71" stroke-width="3" stroke-miterlimit="10"></path>
  <path d="M764.841 546.435H804.329" stroke="#004D71" stroke-width="3" stroke-miterlimit="10"></path>
  <path d="M784.586 429.125L784.586 494.503" stroke="#004D71" stroke-width="3" stroke-miterlimit="10"></path>
  <path d="M784.586 523.256L784.586 588.633" stroke="#004D71" stroke-width="3" stroke-miterlimit="10"></path>
  <path d="M806.637 493.614H761.906V500.07H806.637V493.614Z" fill="#96DAEA"></path>
  <path d="M806.637 587.744H761.906V594.201H806.637V587.744Z" fill="#96DAEA"></path>
  <path d="M852.095 292.803H592.873V387.712H852.095V292.803Z" fill="#004D71"></path>
  <path d="M497.826 717.724C496.381 717.514 494.914 717.375 493.399 717.375C477.954 717.375 465.164 728.665 462.857 743.447C460.015 741.771 456.684 740.817 453.143 740.817C442.543 740.817 433.946 749.407 433.946 759.999H497.826V717.724Z" fill="#00615C"></path>
  <path d="M852.378 381.256H637.066V387.713H852.378V381.256Z" fill="#72253D"></path>
  <g style="mix-blend-mode:multiply" opacity="0.4">
    <path d="M657.428 387.713H637.066V759.95H657.428V387.713Z" fill="#676C6E"></path>
  </g>
  <g style="mix-blend-mode:multiply" opacity="0.4">
    <path d="M657.196 387.712H597.044V292.803H679.717L657.196 387.712Z" fill="#878787"></path>
  </g>
  <path d="M637.067 759.95H495.656V325.434L566.362 259.042L637.067 325.434V759.95Z" fill="#009877"></path>
  <path d="M584.718 429.125H545.207V494.503H584.718V429.125Z" fill="white"></path>
  <path d="M584.718 521.929H545.207V587.307H584.718V521.929Z" fill="white"></path>
  <path d="M545.206 452.304H584.695" stroke="#004D71" stroke-width="3" stroke-miterlimit="10"></path>
  <path d="M545.206 545.108H584.695" stroke="#004D71" stroke-width="3" stroke-miterlimit="10"></path>
  <path d="M564.95 429.125L564.95 494.503" stroke="#004D71" stroke-width="3" stroke-miterlimit="10"></path>
  <path d="M564.95 521.929L564.95 587.307" stroke="#004D71" stroke-width="3" stroke-miterlimit="10"></path>
  <path d="M587.001 493.614H542.271V500.07H587.001V493.614Z" fill="#96DAEA"></path>
  <path d="M587.001 586.417H542.271V592.874H587.001V586.417Z" fill="#96DAEA"></path>
  <path d="M598.746 621.095H532.393V747.27H598.746V621.095Z" fill="#004D71"></path>
  <path d="M607.224 746.146H523.892V759.974H607.224V746.146Z" fill="#06262D"></path>
  <path d="M571.464 646.896H559.676V700.905H571.464V646.896Z" fill="#96DAEA"></path>
  <path d="M643.195 339.728L566.363 267.562L489.53 339.728L480.421 330.044L566.363 249.334L652.304 330.044L643.195 339.728Z" fill="#004D71"></path>
  <path d="M584.23 402.372V350.31C584.23 339.4 575.385 330.555 564.474 330.555C553.564 330.555 544.719 339.4 544.719 350.31V402.372H584.23Z" fill="#00615C"></path>
  <path d="M544.718 376.718H584.206" stroke="#009877" stroke-width="3" stroke-miterlimit="10"></path>
  <path d="M586.514 401.482H541.783V407.939H586.514V401.482Z" fill="#96DAEA"></path>
  <g style="mix-blend-mode:multiply" opacity="0.5">
    <path d="M732.865 382.332V352.535C732.865 341.625 724.02 332.78 713.109 332.78C702.198 332.78 693.354 341.625 693.354 352.535V382.332H732.865Z" fill="#06262D"></path>
  </g>
  <g style="mix-blend-mode:multiply" opacity="0.5">
    <path d="M804.027 382.332V352.535C804.027 341.625 795.182 332.78 784.271 332.78C773.36 332.78 764.516 341.625 764.516 352.535V382.332H804.027Z" fill="#06262D"></path>
  </g>
  <path d="M690.744 366.463L733.571 366.463" stroke="#004D71" stroke-width="3" stroke-miterlimit="10"></path>
  <path d="M764.223 366.463H806.637" stroke="#004D71" stroke-width="3" stroke-miterlimit="10"></path>
  <path d="M733.192 641.973H693.681V707.35H733.192V641.973Z" fill="white"></path>
  <path d="M693.68 665.152H733.168" stroke="#004D71" stroke-width="3" stroke-miterlimit="10"></path>
  <path d="M713.423 641.973L713.423 707.35" stroke="#004D71" stroke-width="3" stroke-miterlimit="10"></path>
  <path d="M735.474 706.461H690.744V712.917H735.474V706.461Z" fill="#96DAEA"></path>
  <path d="M804.353 641.973H764.842V707.35H804.353V641.973Z" fill="white"></path>
  <path d="M764.841 665.152H804.329" stroke="#004D71" stroke-width="3" stroke-miterlimit="10"></path>
  <path d="M784.586 641.973L784.586 707.35" stroke="#004D71" stroke-width="3" stroke-miterlimit="10"></path>
  <path d="M806.637 706.461H761.906V712.918H806.637V706.461Z" fill="#96DAEA"></path>
</svg>
